<svg id="Layer_1" data-name="Layer 1" xmlns="http://www.w3.org/2000/svg" viewBox="0 0 447.87 142.27"><defs><style>.cls-1{fill:none;stroke:#6d6e71;stroke-miterlimit:10;stroke-width:3px;}.cls-2{fill:#6d6e71;}</style></defs><title>file-lane</title><rect class="cls-1" x="1.5" y="1.5" width="139.27" height="139.27" rx="12" ry="12"/><rect class="cls-1" x="153.95" y="1.5" width="139.27" height="139.27" rx="12" ry="12"/><rect class="cls-1" x="307.09" y="1.5" width="139.27" height="139.27" rx="12" ry="12"/><path class="cls-2" d="M590.2,946.11a2,2,0,0,0-2.77,0l-20.25,20.25a8.42,8.42,0,0,0,0,11.91l4.87,4.87a8.42,8.42,0,0,0,11.91,0l27-27a13.53,13.53,0,0,0,0-19.13l-1.72-1.72a13.53,13.53,0,0,0-19.13,0l-35.92,35.92a13.53,13.53,0,0,0,0,19.13l5.8,5.8a13.53,13.53,0,0,0,19.13,0l29.55-29.55a2,2,0,0,0-2.77-2.77L576.32,993.4a9.62,9.62,0,0,1-13.6,0l-5.8-5.8a9.62,9.62,0,0,1,0-13.6l35.92-35.92a9.62,9.62,0,0,1,13.6,0l1.72,1.72a9.62,9.62,0,0,1,0,13.6l-27,27a4.51,4.51,0,0,1-6.38,0L570,975.5a4.51,4.51,0,0,1,0-6.37l20.25-20.25A2,2,0,0,0,590.2,946.11Z" transform="translate(-511.4 -894.6)"/><path class="cls-2" d="M743,946.11a2,2,0,0,0-2.77,0L720,966.36a8.42,8.42,0,0,0,0,11.91l4.87,4.87a8.42,8.42,0,0,0,11.91,0l27-27a13.53,13.53,0,0,0,0-19.13L762,935.31a13.53,13.53,0,0,0-19.13,0L707,971.23a13.53,13.53,0,0,0,0,19.13l5.8,5.8a13.53,13.53,0,0,0,19.13,0l29.55-29.55a2,2,0,0,0-2.77-2.77L729.12,993.4a9.62,9.62,0,0,1-13.6,0l-5.8-5.8a9.62,9.62,0,0,1,0-13.6l35.92-35.92a9.62,9.62,0,0,1,13.6,0L761,939.8a9.62,9.62,0,0,1,0,13.6l-27,27a4.51,4.51,0,0,1-6.38,0l-4.87-4.87a4.51,4.51,0,0,1,0-6.37L743,948.87A2,2,0,0,0,743,946.11Z" transform="translate(-511.4 -894.6)"/><path class="cls-2" d="M895.11,946.11a2,2,0,0,0-2.77,0l-20.25,20.25a8.42,8.42,0,0,0,0,11.91l4.87,4.87a8.42,8.42,0,0,0,11.91,0l27-27a13.53,13.53,0,0,0,0-19.13l-1.72-1.72a13.53,13.53,0,0,0-19.13,0l-35.92,35.92a13.53,13.53,0,0,0,0,19.13l5.8,5.8a13.53,13.53,0,0,0,19.13,0l29.55-29.55a2,2,0,0,0-2.77-2.77L881.22,993.4a9.62,9.62,0,0,1-13.6,0l-5.8-5.8a9.62,9.62,0,0,1,0-13.6l35.92-35.92a9.62,9.62,0,0,1,13.6,0l1.72,1.72a9.62,9.62,0,0,1,0,13.6l-27,27a4.51,4.51,0,0,1-6.38,0l-4.87-4.87a4.51,4.51,0,0,1,0-6.37l20.25-20.25A2,2,0,0,0,895.11,946.11Z" transform="translate(-511.4 -894.6)"/></svg>