<svg id="Layer_1" data-name="Layer 1" xmlns="http://www.w3.org/2000/svg" viewBox="0 0 391.39 123.2"><defs><style>.cls-1,.cls-2{fill:none;stroke:#6d6e71;stroke-miterlimit:10;stroke-width:2px;}.cls-2{stroke-dasharray:6.72 6.72;}</style></defs><title>text-lane</title><polyline class="cls-1" points="122.19 118.69 122.19 122.19 118.69 122.19"/><line class="cls-2" x1="111.98" y1="122.2" x2="7.86" y2="122.2"/><polyline class="cls-1" points="4.5 122.19 1 122.19 1 118.69"/><line class="cls-2" x1="1" y1="111.98" x2="1" y2="7.86"/><polyline class="cls-1" points="1 4.5 1 1 4.5 1"/><line class="cls-2" x1="11.22" y1="1" x2="115.34" y2="1"/><polyline class="cls-1" points="118.69 1 122.19 1 122.19 4.5"/><line class="cls-2" x1="122.2" y1="11.22" x2="122.2" y2="115.34"/><polyline class="cls-1" points="256.59 118.69 256.59 122.19 253.09 122.19"/><line class="cls-2" x1="246.37" y1="122.2" x2="142.25" y2="122.2"/><polyline class="cls-1" points="138.89 122.19 135.39 122.19 135.39 118.69"/><line class="cls-2" x1="135.39" y1="111.98" x2="135.39" y2="7.86"/><polyline class="cls-1" points="135.39 4.5 135.39 1 138.89 1"/><line class="cls-2" x1="145.61" y1="1" x2="249.73" y2="1"/><polyline class="cls-1" points="253.09 1 256.59 1 256.59 4.5"/><line class="cls-2" x1="256.59" y1="11.22" x2="256.59" y2="115.34"/><polyline class="cls-1" points="390.39 118.69 390.39 122.19 386.89 122.19"/><line class="cls-2" x1="380.17" y1="122.2" x2="276.05" y2="122.2"/><polyline class="cls-1" points="272.69 122.19 269.19 122.19 269.19 118.69"/><line class="cls-2" x1="269.2" y1="111.98" x2="269.2" y2="7.86"/><polyline class="cls-1" points="269.19 4.5 269.19 1 272.69 1"/><line class="cls-2" x1="279.41" y1="1" x2="383.53" y2="1"/><polyline class="cls-1" points="386.89 1 390.39 1 390.39 4.5"/><line class="cls-2" x1="390.39" y1="11.22" x2="390.39" y2="115.34"/><polyline class="cls-1" points="256.59 118.69 256.59 122.19 253.09 122.19"/><line class="cls-2" x1="246.37" y1="122.2" x2="142.25" y2="122.2"/><polyline class="cls-1" points="138.89 122.19 135.39 122.19 135.39 118.69"/><line class="cls-2" x1="135.39" y1="111.98" x2="135.39" y2="7.86"/><polyline class="cls-1" points="135.39 4.5 135.39 1 138.89 1"/><line class="cls-2" x1="145.61" y1="1" x2="249.73" y2="1"/><polyline class="cls-1" points="253.09 1 256.59 1 256.59 4.5"/><line class="cls-2" x1="256.59" y1="11.22" x2="256.59" y2="115.34"/></svg>